<?xml version="1.0" standalone="no"?>
<!DOCTYPE svg PUBLIC "-//W3C//DTD SVG 20010904//EN"
 "http://www.w3.org/TR/2001/REC-SVG-20010904/DTD/svg10.dtd">
<svg version="1.0" xmlns="http://www.w3.org/2000/svg"
 width="1873.000000pt" height="1873.000000pt" viewBox="0 0 1873.000000 1873.000000"
 preserveAspectRatio="xMidYMid meet">
<metadata>
Created by potrace 1.11, written by Peter Selinger 2001-2013
</metadata>
<g transform="translate(0.000000,1873.000000) scale(0.100000,-0.100000)"
fill="#000000" stroke="none">
<path d="M4894 16412 c-22 -9 -78 -38 -125 -65 -275 -155 -523 -422 -671 -719
-31 -62 -77 -179 -83 -210 -5 -22 -140 -424 -156 -463 -7 -16 -13 -32 -14 -35
-4 -13 -18 -47 -25 -65 -5 -11 -27 -65 -50 -120 -82 -196 -204 -433 -311 -604
-33 -51 -59 -97 -59 -102 0 -5 -4 -9 -10 -9 -5 0 -10 -5 -10 -10 0 -6 -5 -16
-10 -23 -6 -7 -47 -61 -93 -122 -90 -120 -101 -133 -167 -208 -174 -198 -423
-395 -655 -522 -38 -21 -86 -47 -105 -59 -19 -11 -37 -21 -40 -21 -3 -1 -52
-24 -111 -52 -58 -28 -157 -72 -220 -97 -62 -26 -125 -52 -139 -58 -14 -6 -29
-12 -35 -14 -5 -1 -46 -16 -90 -34 -44 -17 -87 -32 -97 -33 -10 -1 -18 -5 -18
-9 0 -4 -6 -8 -12 -8 -7 0 -47 -13 -88 -29 -41 -16 -115 -44 -165 -62 -49 -18
-101 -39 -114 -46 -14 -6 -28 -10 -33 -7 -4 3 -8 2 -8 -3 0 -4 -21 -17 -48
-27 -137 -56 -422 -215 -422 -237 0 -4 -9 -10 -20 -14 -30 -9 -210 -192 -262
-265 -77 -108 -210 -356 -223 -415 -1 -5 -6 -21 -12 -35 -29 -71 -75 -223 -88
-291 -2 -9 -8 -34 -14 -55 -6 -21 -8 -40 -6 -42 2 -3 0 -13 -5 -22 -5 -10 -12
-38 -15 -61 -4 -40 -7 -62 -21 -139 -6 -40 -24 -228 -29 -310 -5 -82 -5 -386
0 -600 3 -128 11 -476 20 -930 3 -113 7 -322 10 -465 3 -143 7 -361 10 -485 3
-124 7 -340 10 -480 5 -241 9 -431 20 -945 2 -121 7 -344 10 -495 3 -151 8
-369 10 -485 2 -115 7 -331 10 -480 3 -148 7 -369 10 -490 2 -121 7 -339 10
-485 5 -274 14 -415 25 -415 2 0 7 -36 11 -92 2 -24 7 -43 12 -43 4 0 7 -11 7
-24 0 -33 64 -289 87 -346 3 -8 7 -20 8 -26 18 -80 196 -458 264 -559 17 -25
31 -48 31 -50 0 -15 125 -142 194 -197 123 -98 392 -226 531 -253 11 -2 20 -4
20 -5 0 -2 26 -9 85 -21 40 -8 290 -10 900 -6 465 3 865 8 890 11 90 11 120
16 380 68 240 47 234 46 238 48 1 2 10 3 20 5 9 1 24 4 32 7 8 3 42 12 75 19
33 7 62 13 65 14 3 1 19 4 35 8 17 4 39 9 50 12 17 3 189 48 235 61 8 2 40 10
70 18 74 19 143 38 283 79 64 19 117 32 117 28 0 -3 4 -1 8 5 4 6 36 19 72 28
36 10 126 39 200 63 74 25 140 46 145 46 6 1 12 4 15 7 3 3 48 20 100 37 52
18 120 42 150 53 30 12 75 28 100 37 25 8 51 20 58 25 6 6 12 7 12 3 0 -4 7
-2 15 5 8 7 15 9 15 5 0 -4 6 -3 13 2 10 8 97 44 117 49 3 0 17 6 32 12 16 6
78 32 139 57 61 25 130 54 153 65 23 10 48 20 56 22 8 2 17 5 20 8 3 3 55 27
115 54 61 27 137 61 170 76 33 15 75 33 93 41 17 8 32 17 32 21 0 5 6 8 14 8
22 0 534 258 721 364 28 16 77 43 110 61 80 43 126 69 174 99 22 15 43 26 46
26 2 0 29 16 59 35 30 19 57 35 59 35 4 0 253 153 273 167 5 4 18 13 27 18 47
28 313 200 317 205 3 4 39 28 80 55 41 27 77 51 80 54 11 13 70 51 79 51 5 0
11 4 13 8 2 5 49 40 105 80 55 39 108 78 116 87 9 8 20 15 25 15 6 0 12 4 14
8 2 4 25 23 53 42 49 35 77 56 99 75 6 6 38 30 71 54 33 25 62 47 65 50 11 13
117 91 124 91 4 0 102 -71 219 -158 952 -709 2008 -1306 3057 -1729 102 -41
194 -78 205 -83 11 -5 83 -32 160 -60 77 -28 156 -58 175 -65 135 -55 632
-214 910 -291 274 -77 744 -191 865 -210 22 -3 43 -8 46 -10 3 -2 21 -6 40 -9
19 -3 81 -15 139 -25 58 -11 117 -22 133 -24 15 -3 35 -7 45 -10 9 -2 37 -7
62 -10 25 -4 56 -8 70 -10 27 -5 69 -11 170 -26 36 -6 76 -12 90 -14 14 -2 52
-7 85 -11 33 -3 78 -8 100 -11 277 -32 917 -38 1070 -10 11 2 47 7 80 10 541
61 961 254 1172 536 141 189 293 559 368 890 18 81 18 80 35 190 31 203 35
240 45 415 4 66 9 140 10 165 8 102 17 794 17 1200 0 383 -7 1094 -17 1820 -7
518 -18 1705 -21 2385 -1 396 -5 740 -7 765 -3 25 -7 81 -11 125 -6 79 -11
125 -21 196 -3 20 -8 54 -11 75 -8 70 -64 332 -79 375 -8 23 -17 51 -19 63
-18 99 -163 413 -255 551 -212 320 -486 492 -1146 718 -264 91 -367 127 -390
137 -11 4 -94 39 -185 76 -406 166 -701 348 -940 579 -75 72 -147 149 -200
215 -25 30 -48 57 -51 60 -13 12 -158 210 -193 265 -21 33 -46 71 -55 85 -55
79 -201 352 -284 530 -70 150 -168 405 -252 655 -39 118 -110 275 -152 340
-15 22 -43 65 -63 95 -20 30 -47 82 -60 115 -13 33 -37 82 -52 108 -15 26 -28
52 -28 57 0 6 -4 10 -10 10 -5 0 -10 4 -10 10 0 34 -232 250 -269 250 -5 0
-11 6 -13 13 -4 9 -146 13 -657 15 l-653 2 -36 -22 c-21 -12 -43 -28 -50 -35
-7 -7 -16 -13 -20 -13 -4 0 -37 -28 -73 -63 -74 -70 -153 -170 -190 -237 -13
-25 -27 -47 -30 -50 -9 -8 -85 -189 -107 -255 -23 -69 -62 -216 -78 -295 -3
-14 -12 -59 -21 -100 -20 -101 -24 -120 -28 -155 -1 -16 -5 -37 -8 -45 -5 -13
-14 -63 -33 -175 -2 -11 -6 -33 -9 -50 -3 -16 -10 -55 -16 -85 -18 -95 -20
-105 -24 -120 -3 -8 -7 -32 -11 -54 -3 -21 -8 -47 -10 -57 -6 -28 -10 -49 -19
-94 -5 -22 -9 -44 -11 -50 -3 -12 -73 -332 -79 -360 -3 -11 -27 -110 -55 -220
-28 -110 -52 -209 -54 -220 -7 -32 -13 -57 -27 -105 -7 -25 -13 -49 -15 -55
-1 -5 -21 -77 -44 -160 -22 -82 -42 -154 -44 -160 -1 -5 -8 -30 -15 -55 -7
-25 -13 -46 -12 -48 1 -1 -5 -18 -13 -37 -16 -38 -16 -37 -16 -60 0 -35 -19
-9 -68 94 -28 59 -59 126 -68 147 -9 21 -27 63 -40 92 -13 29 -24 54 -24 57 0
2 -13 32 -29 67 -31 69 -144 359 -186 478 -14 41 -30 84 -35 95 -35 79 -228
698 -288 925 -11 41 -30 111 -41 155 -43 162 -117 363 -174 475 -33 63 -81
160 -109 215 -42 85 -120 218 -138 235 -3 3 -23 28 -44 55 -67 85 -227 235
-311 291 l-80 54 -485 0 c-476 0 -486 0 -525 -21 -55 -30 -225 -143 -255 -171
-14 -13 -38 -34 -55 -46 -104 -80 -284 -280 -362 -402 -61 -97 -129 -234 -125
-252 1 -5 -2 -8 -6 -8 -5 0 -9 -6 -10 -12 0 -7 -8 -33 -17 -58 -25 -64 -112
-369 -113 -393 -1 -9 -15 -65 -20 -77 -3 -8 -6 -22 -8 -30 -1 -8 -7 -35 -14
-60 -7 -25 -13 -52 -15 -60 -2 -8 -10 -40 -19 -71 -9 -31 -19 -65 -21 -75 -2
-11 -11 -44 -20 -74 -9 -30 -17 -60 -19 -67 -1 -7 -5 -15 -8 -19 -4 -3 -4 -12
-2 -19 3 -7 0 -16 -5 -20 -6 -3 -9 -11 -6 -16 4 -5 2 -9 -2 -9 -5 0 -9 -8 -10
-17 -1 -20 -52 -194 -77 -262 -9 -24 -13 -47 -10 -52 3 -5 1 -9 -3 -9 -7 0
-33 -77 -33 -95 0 -3 -7 -19 -16 -37 -9 -17 -17 -40 -19 -52 -3 -21 -68 -204
-86 -241 -6 -12 -11 -27 -13 -35 -1 -8 -10 -32 -19 -54 -9 -21 -17 -45 -17
-52 0 -8 -5 -14 -12 -14 -6 0 -8 -3 -5 -7 4 -3 2 -12 -4 -20 -6 -7 -9 -13 -6
-13 3 0 -17 -53 -44 -117 -27 -65 -49 -123 -49 -130 0 -7 -4 -13 -10 -13 -5 0
-9 -3 -8 -7 1 -5 -6 -26 -16 -48 -10 -22 -19 -44 -20 -50 -5 -21 -31 -70 -41
-77 -5 -4 -6 -8 -1 -8 5 0 4 -6 -2 -12 -6 -7 -11 -17 -13 -23 -1 -5 -10 -28
-19 -50 l-17 -39 -41 129 c-90 282 -283 984 -316 1150 -3 11 -21 90 -41 175
-20 85 -45 198 -56 250 -11 52 -22 102 -24 110 -14 64 -38 180 -42 205 -2 17
-8 46 -13 65 -5 19 -12 51 -15 70 -3 19 -8 42 -10 50 -2 8 -7 31 -10 50 -10
62 -73 302 -105 400 -41 124 -114 278 -179 374 -96 142 -205 237 -413 362 -32
19 -84 50 -115 69 l-57 35 -390 -1 c-344 0 -396 -2 -432 -17z m9019 -4884 c23
-18 44 -36 47 -39 11 -12 185 -132 380 -261 202 -134 310 -208 320 -218 3 -3
45 -36 93 -74 124 -96 293 -264 394 -393 15 -20 45 -57 66 -82 21 -25 52 -74
68 -109 28 -59 31 -72 32 -180 2 -187 -17 -278 -75 -366 -150 -225 -542 -165
-1098 168 -74 45 -139 83 -143 85 -17 7 -265 177 -372 254 -177 129 -196 145
-185 165 21 37 100 225 100 238 0 8 5 14 12 14 6 0 9 3 6 6 -6 5 4 30 47 129
16 37 145 383 145 389 0 3 5 17 12 33 6 15 12 30 12 33 1 3 8 25 17 50 9 25
27 78 40 118 13 39 27 72 32 72 4 0 27 -15 50 -32z m-9133 -28 c0 -41 258
-712 369 -959 60 -133 60 -135 40 -150 -11 -9 -28 -23 -39 -32 -10 -8 -31 -24
-45 -35 -14 -10 -55 -41 -91 -67 -35 -27 -122 -88 -192 -137 -70 -49 -133 -94
-139 -100 -7 -6 -13 -8 -13 -5 0 3 -15 -5 -32 -18 -115 -87 -535 -307 -552
-289 -3 3 -6 0 -6 -6 0 -7 -3 -11 -7 -10 -5 1 -37 -7 -73 -19 -220 -72 -385
-61 -489 33 -47 42 -96 125 -105 180 -3 16 -10 52 -15 79 -23 119 -8 293 32
367 12 24 93 134 111 154 6 6 20 23 31 38 11 15 33 44 50 64 42 52 261 270
316 314 54 44 149 118 176 137 79 55 322 223 336 234 41 27 196 140 227 164
96 76 110 84 110 63z m4576 -450 c20 -36 51 -87 69 -115 17 -27 80 -129 140
-225 103 -165 354 -545 397 -600 82 -104 159 -224 153 -238 -9 -24 -157 -263
-243 -393 -130 -196 -156 -234 -167 -241 -6 -5 -6 -8 0 -8 6 0 6 -3 0 -8 -6
-4 -33 -38 -60 -77 -42 -60 -238 -324 -293 -394 l-19 -23 -89 114 c-49 62
-108 139 -131 171 -24 31 -61 81 -82 110 -22 28 -89 124 -150 212 -61 88 -115
165 -121 172 -5 7 -10 15 -10 17 0 3 -22 38 -48 78 -43 65 -118 180 -159 247
-14 21 -13 26 4 50 17 22 43 60 154 221 21 30 223 341 253 390 12 19 38 60 58
90 19 30 48 78 63 105 16 28 31 52 34 55 3 3 13 19 21 35 8 17 19 35 23 40 15
17 125 207 144 247 9 20 18 36 19 35 1 -1 19 -31 40 -67z m2673 -3178 c66 -51
273 -188 431 -284 148 -91 183 -111 295 -173 28 -15 64 -35 80 -45 113 -65
545 -283 740 -373 268 -123 713 -315 950 -409 55 -22 156 -69 224 -104 436
-227 639 -481 577 -722 -38 -148 -143 -263 -287 -313 -54 -19 -88 -23 -219
-25 -85 -1 -180 2 -210 6 -30 5 -80 11 -110 14 -127 12 -169 18 -245 33 -86
16 -245 64 -310 93 -22 10 -67 29 -100 43 -33 14 -112 50 -175 80 -104 49
-606 267 -615 267 -5 0 -345 145 -400 170 -22 10 -74 34 -115 52 -133 58 -491
243 -655 338 -314 181 -650 404 -638 423 4 7 31 41 61 77 77 92 78 94 165 205
107 136 130 165 145 180 6 8 12 16 12 19 0 2 36 53 81 111 88 117 170 231 224
313 19 28 40 52 46 52 6 0 28 -13 48 -28z m-5274 -74 c63 -91 278 -377 362
-483 35 -44 70 -87 76 -95 46 -58 206 -251 229 -275 l28 -30 -23 -18 c-30 -24
-439 -297 -500 -333 -27 -16 -56 -34 -65 -39 -205 -122 -544 -302 -727 -385
-51 -23 -159 -73 -252 -116 -28 -13 -54 -24 -57 -24 -3 0 -44 -18 -91 -40 -47
-22 -88 -40 -90 -40 -2 0 -36 -15 -77 -33 -40 -19 -131 -60 -203 -93 -71 -32
-133 -62 -136 -67 -3 -5 -9 -8 -13 -7 -6 2 -244 -111 -298 -141 -81 -44 -343
-129 -443 -144 -22 -3 -53 -8 -70 -10 -16 -3 -52 -8 -80 -11 -27 -3 -63 -7
-80 -9 -120 -17 -167 -20 -295 -19 -197 1 -281 30 -372 126 -82 87 -129 190
-128 283 1 84 2 95 12 95 5 0 6 5 3 10 -3 6 -3 16 2 23 4 6 8 17 9 24 5 33 85
144 153 213 90 91 136 128 256 205 75 49 331 185 348 185 2 0 26 10 53 22 27
12 51 23 54 23 6 2 41 17 112 49 111 50 133 59 138 61 3 0 19 9 37 18 18 9 38
17 44 17 7 0 20 7 30 16 9 8 26 16 38 17 11 1 21 5 21 9 0 4 5 8 12 8 6 0 63
25 125 55 63 30 116 55 119 55 14 0 585 291 610 311 6 5 14 6 17 2 4 -3 7 -1
7 6 0 7 4 10 9 7 5 -4 11 -3 13 2 1 4 62 40 133 80 72 40 137 77 145 81 298
177 547 338 685 443 28 21 55 38 60 38 6 0 33 -33 60 -72z"/>
</g>
</svg>
